<?xml version="1.0" standalone="no"?>
<!DOCTYPE svg PUBLIC "-//W3C//DTD SVG 20010904//EN"
        "http://www.w3.org/TR/2001/REC-SVG-20010904/DTD/svg10.dtd">
<svg version="1.0" xmlns="http://www.w3.org/2000/svg"
     width="300.000000pt" height="109.000000pt" viewBox="0 0 300.000000 109.000000"
     preserveAspectRatio="xMidYMid meet">
    <metadata>
        Created by potrace 1.10, written by Peter Selinger 2001-2011
    </metadata>
    <g transform="translate(0.000000,109.000000) scale(0.100000,-0.100000)"
       fill="#000000" stroke="none">
        <path d="M200 630 l0 -360 1300 0 1300 0 0 360 0 360 -1300 0 -1300 0 0 -360z
m2580 0 l0 -330 -1275 0 -1275 0 0 330 0 330 1275 0 1275 0 0 -330z"/>
        <path d="M275 630 l0 -290 388 0 387 0 0 290 0 290 -387 0 -388 0 0 -290z
m723 238 c18 -18 17 -461 -2 -477 -9 -8 -108 -11 -342 -9 l-329 3 -3 235 c-1
129 0 240 2 247 7 18 656 19 674 1z"/>
        <path d="M441 744 c-30 -39 -30 -169 0 -208 26 -32 39 -33 69 -1 31 33 76 33
102 0 41 -52 88 -16 88 67 0 27 4 48 10 48 14 0 40 -54 40 -83 0 -27 28 -57
53 -57 19 0 47 37 47 62 0 10 15 47 32 83 34 68 33 85 -5 109 -12 8 -24 5 -47
-12 l-30 -23 -30 22 c-26 20 -33 21 -56 10 -19 -8 -30 -9 -38 -1 -18 18 -47
11 -78 -20 -16 -16 -33 -30 -37 -30 -4 0 -20 14 -36 30 -35 37 -57 38 -84 4z
m79 -59 c19 -30 38 -55 42 -55 4 0 22 25 40 55 49 80 58 73 58 -45 0 -86 -2
-100 -16 -100 -15 0 -16 9 -11 71 7 78 -2 81 -39 14 -10 -19 -24 -35 -31 -35
-7 0 -26 21 -43 48 l-30 47 0 -72 c0 -58 -3 -73 -15 -73 -12 0 -15 18 -15 100
0 119 9 125 60 45z m248 10 c12 -25 25 -45 30 -45 4 0 18 20 32 45 15 28 31
45 43 45 17 0 17 -2 -4 -37 -12 -21 -31 -50 -41 -65 -10 -14 -18 -42 -18 -62
0 -27 -4 -36 -16 -36 -13 0 -15 7 -10 32 5 26 -1 43 -34 95 -22 35 -40 66 -40
69 0 2 8 4 18 4 11 0 26 -16 40 -45z"/>
        <path d="M1198 729 c-55 -32 -37 -90 33 -109 23 -7 39 -16 36 -23 -4 -14 -47
-22 -47 -9 0 12 -49 22 -55 12 -3 -4 5 -19 16 -34 39 -49 139 -28 139 30 0 30
-14 44 -56 59 -21 7 -40 20 -42 29 -4 20 17 20 42 1 23 -17 56 -20 56 -5 0 6
-11 22 -25 35 -25 26 -67 32 -97 14z"/>
        <path d="M1350 640 l0 -100 30 0 c28 0 30 2 30 40 0 38 2 40 30 40 28 0 30 -2
30 -40 0 -38 2 -40 30 -40 l29 0 0 100 0 100 -29 0 c-28 0 -30 -2 -30 -40 0
-38 -2 -40 -30 -40 -28 0 -30 2 -30 40 0 38 -2 40 -30 40 l-30 0 0 -100z"/>
        <path d="M1614 731 c-33 -14 -54 -51 -54 -94 0 -110 166 -136 200 -32 14 41 5
77 -25 105 -26 24 -88 35 -121 21z m80 -54 c22 -16 18 -65 -5 -80 -47 -29
-101 32 -64 73 21 23 44 25 69 7z"/>
        <path d="M1800 641 l0 -101 29 0 c25 0 28 3 23 25 -4 23 -1 25 30 25 65 0 100
70 60 120 -13 16 -32 23 -80 27 l-62 6 0 -102z m101 33 c11 -14 10 -18 -6 -30
-30 -22 -45 -17 -45 16 0 23 5 30 19 30 10 0 25 -7 32 -16z"/>
        <path d="M1990 641 l0 -101 29 0 c25 0 28 3 23 25 -4 22 -1 25 25 25 42 0 83
34 83 70 0 49 -28 71 -98 77 l-62 6 0 -102z m101 33 c11 -14 10 -18 -6 -30
-30 -22 -45 -17 -45 16 0 23 5 30 19 30 10 0 25 -7 32 -16z"/>
        <path d="M2180 641 l0 -101 28 0 27 0 -1 97 0 98 -27 3 -27 3 0 -100z"/>
        <path d="M2278 640 l-3 -100 27 0 c25 0 27 3 30 52 l3 51 35 -51 c25 -37 42
-52 58 -52 21 0 22 3 22 100 0 99 0 100 -24 100 -23 0 -25 -4 -28 -52 l-3 -53
-38 53 c-23 30 -46 52 -57 52 -17 0 -19 -11 -22 -100z"/>
        <path d="M2522 715 c-34 -29 -46 -71 -31 -114 14 -39 49 -61 99 -61 50 0 100
42 100 84 0 25 -3 26 -55 26 -42 0 -55 -3 -55 -15 0 -9 10 -15 26 -15 30 0 28
-19 -3 -31 -45 -17 -86 54 -51 89 15 15 54 16 63 2 3 -5 22 -10 41 -10 32 0
34 2 24 20 -14 26 -61 50 -99 50 -17 0 -42 -11 -59 -25z"/>
        <path d="M2084 221 c-12 -30 -22 -41 -42 -43 -14 -2 -27 -9 -30 -16 -3 -11 0
-12 18 -2 30 16 33 10 15 -40 -17 -49 -19 -64 -5 -55 5 3 17 33 26 66 16 57
37 91 32 52 -4 -31 13 -101 28 -114 8 -6 21 -8 31 -3 10 4 23 8 28 8 6 1 11
12 13 26 5 38 23 80 33 74 5 -3 9 -25 9 -50 0 -24 4 -44 9 -44 14 0 20 51 9
82 -9 25 -15 29 -34 24 -14 -4 -24 -2 -24 4 0 5 -4 10 -9 10 -5 0 -12 -22 -16
-48 -8 -61 -21 -83 -35 -62 -16 25 -12 68 8 73 13 4 11 5 -5 6 -20 1 -23 7
-23 40 0 55 -17 60 -36 12z"/>
        <path d="M2356 185 c-9 -9 -16 -26 -16 -39 0 -12 -6 -31 -14 -41 -12 -17 -14
-15 -20 18 -4 23 -13 37 -21 37 -8 0 -15 -4 -15 -10 0 -5 5 -10 10 -10 6 0 10
-11 10 -24 0 -31 16 -42 36 -25 11 9 18 8 34 -6 19 -17 21 -17 40 0 19 17 20
17 21 -1 0 -11 4 -7 9 11 14 51 19 105 11 105 -5 0 -11 -16 -14 -36 -6 -34
-31 -74 -47 -74 -18 0 -16 39 2 54 20 18 21 47 2 53 -7 2 -19 -3 -28 -12z"/>
        <path d="M2603 188 c-18 -23 -23 -66 -12 -92 16 -35 40 -42 61 -16 10 12 22
19 27 16 5 -4 12 -2 16 4 11 18 24 11 27 -17 2 -14 8 -28 14 -30 13 -4 57 64
51 81 -2 6 -11 -4 -21 -21 -9 -18 -19 -33 -23 -33 -3 0 -3 23 -1 51 l5 50 -31
-3 c-26 -3 -35 -11 -54 -50 -25 -53 -37 -59 -46 -25 -8 31 -7 50 4 67 9 13 11
13 21 0 8 -12 10 -12 7 5 -4 23 -31 31 -45 13z m117 -23 c0 -12 -24 -55 -32
-55 -11 0 -10 4 4 35 9 21 28 35 28 20z"/>
        <path d="M2460 125 c0 -52 3 -67 17 -72 10 -4 22 1 33 15 13 15 20 18 28 10
12 -12 42 6 42 24 0 6 -7 5 -15 -2 -13 -11 -15 -6 -15 34 0 55 -15 61 -25 9
-16 -89 -50 -95 -39 -7 5 46 4 54 -10 54 -13 0 -16 -12 -16 -65z"/>
    </g>
</svg>
